# xmcd
#
# Track frame offsets:
#	150
#	16806
#	31049
#	47615
#	64610
#	82067
#	101459
#	117891
#	133476
#	150147
#	164385
#	180941
#	197921
#	215310
#	234701
#	251136
#	278122
#
# Disc length: 3720 seconds
#
# Revision: 1
# Processed by: cddbd v1.5.2PL0 Copyright (c) Steve Scherf et al.
# Submitted via: audiograbber 1.83.01
#
DISCID=dd0e8611
DTITLE=Sound Choice - SC3363
DYEAR=1900
DGENRE=Karaoke
TTITLE0=Lonestar - My Front Porch Looking In
TTITLE1=Tracy Byrd - Truth About Men
TTITLE2=George Strait - Real Thing
TTITLE3=Vince Gill - Someday
TTITLE4=Terri Clark - Pain To Kill
TTITLE5=Trace Adkins - Then They Do
TTITLE6=Sammy Kershaw - I Want My Money Back
TTITLE7=Tanya Tucker - Old Weakness (Coming Strong)
TTITLE8=Lonestar - My Front Porch Looking In (Vocal Version)
TTITLE9=Tracy Byrd - Truth About Men (Vocal Version)
TTITLE10=George Strait - Real Thing (Vocal Version)
TTITLE11=Vince Gill - Someday (Vocal Version)
TTITLE12=Terri Clark - Pain To Kill (Vocal Version)
TTITLE13=Trace Adkins - Then They Do (Vocal Version)
TTITLE14=Sammy Kershaw - I Want My Money Back (Vocal Version)
TTITLE15=Tanya Tucker - Old Weakness (Coming On Strong) (Vocal Version)
TTITLE16=Data Track - Data Track
EXTD=
EXTT0=
EXTT1=
EXTT2=
EXTT3=
EXTT4=
EXTT5=
EXTT6=
EXTT7=
EXTT8=
EXTT9=
EXTT10=
EXTT11=
EXTT12=
EXTT13=
EXTT14=
EXTT15=
EXTT16=
PLAYORDER=
